<svg width="40" height="40" viewBox="0 0 40 40" fill="none" xmlns="http://www.w3.org/2000/svg">
<path d="M36.5898 3.49586C36.5898 3.49586 40.2901 2.04139 39.9817 5.57368C39.879 7.02817 38.9539 12.1188 38.2344 17.6251L35.7675 33.936C35.7675 33.936 35.562 36.3254 33.7118 36.741C31.8616 37.1565 29.0865 35.2866 28.5725 34.871C28.1614 34.5593 20.8636 29.8842 18.2939 27.5986C17.5744 26.9753 16.7521 25.7285 18.3967 24.2741L29.1893 13.885C30.4227 12.6383 31.6561 9.72936 26.5168 13.2617L12.1268 23.1313C12.1268 23.1313 10.4822 24.1702 7.39867 23.2352L0.717544 21.1574C0.717544 21.1574 -1.74932 19.599 2.46491 18.0406C12.7435 13.1577 25.3862 8.17092 36.5898 3.49586Z" fill="#039BE5"/>
</svg>
