<svg width="40" height="40" viewBox="0 0 40 40" fill="none" xmlns="http://www.w3.org/2000/svg">
<g clip-path="url(#clip0_2286_6733)">
<path fill-rule="evenodd" clip-rule="evenodd" d="M12.58 35.9997C27.674 35.9997 35.93 23.6868 35.93 13.0104C35.93 12.6599 35.93 12.312 35.906 11.9654C37.512 10.8234 38.898 9.40533 40 7.7828C38.504 8.43655 36.914 8.86527 35.288 9.05429C37 8.04415 38.282 6.45716 38.896 4.58455C37.284 5.52578 35.522 6.19005 33.684 6.54647C30.576 3.29352 25.378 3.13592 22.072 6.19589C19.942 8.16891 19.036 11.1107 19.698 13.9166C13.1 13.5898 6.952 10.522 2.784 5.47518C0.606 9.16721 1.72 13.8886 5.326 16.2594C4.02 16.222 2.742 15.8758 1.6 15.2496V15.3522C1.602 19.1978 4.356 22.5091 8.184 23.2711C6.976 23.596 5.708 23.6432 4.48 23.4088C5.554 26.7012 8.636 28.9562 12.146 29.0212C9.24 31.2699 5.65 32.4909 1.954 32.487C1.302 32.485 0.65 32.4476 0 32.3708C3.754 34.7416 8.12 35.9997 12.58 35.9938" fill="#09A9EC"/>
</g>
<defs>
<clipPath id="clip0_2286_6733">
<rect width="40" height="40" fill="white"/>
</clipPath>
</defs>
</svg>
