<?xml version="1.0" encoding="utf-8"?>
<!-- Generator: Adobe Illustrator 26.0.3, SVG Export Plug-In . SVG Version: 6.00 Build 0)  -->
<svg version="1.0" id="katman_1" xmlns="http://www.w3.org/2000/svg" xmlns:xlink="http://www.w3.org/1999/xlink" x="0px" y="0px"
	 viewBox="0 0 600 450" style="enable-background:new 0 0 600 450;" xml:space="preserve">
<style type="text/css">
	.st0{fill:#010202;}
</style>
<path class="st0" d="M276.2,159.6c-9.9,0-17.9,8-17.9,17.9h11.9c0-3.3,2.7-6,6-6c3.3,0,6,2.7,6,6h11.9
	C294.1,167.7,286.1,159.6,276.2,159.6z"/>
<path class="st0" d="M324,159.6c-9.9,0-17.9,8-17.9,17.9H318c0-3.3,2.7-6,6-6s6,2.7,6,6h11.9C341.9,167.7,333.9,159.6,324,159.6z"/>
<path class="st0" d="M300.1,321c-13.2,0-23.9,10.7-23.9,23.9c0,13.2,10.7,23.9,23.9,23.9S324,358,324,344.9
	C324,331.7,313.3,321,300.1,321z M300.1,356.8c-6.6,0-11.9-5.4-11.9-11.9s5.4-11.9,11.9-11.9s11.9,5.4,11.9,11.9
	S306.7,356.8,300.1,356.8z"/>
<path class="st0" d="M443.5,392.7V315c0-49.4-40.2-89.6-89.6-89.6h-6.5c2.1-1.9,4.1-3.9,6-6h6.5c16.5,0,29.9-13.4,29.9-29.9V179
	c7.2-4.8,11.9-13,11.9-22.3c0-9.3-4.8-17.6-12-22.4c-0.8-48.7-40.6-88.2-89.5-88.2s-88.8,39.4-89.5,88.2c-7.2,4.8-12,13-12,22.4
	c0,14.8,12.1,26.9,26.9,26.9h4.1c2.8,16.6,11.3,31.2,23.4,41.8h-6.5c-49.4,0-89.6,40.2-89.6,89.6v77.7h-35.8v11.9h358.5v-11.9H443.5
	L443.5,392.7z M377.8,189.5c0,9.1-6.8,16.5-15.5,17.7c4.1-7.2,7-15.2,8.5-23.7h4.1c1,0,2-0.2,3-0.3V189.5z M389.7,156.7
	c0,8.2-6.7,14.9-14.9,14.9h-3v-29.9h3C383,141.7,389.7,148.4,389.7,156.7z M228.4,171.6h-3c-8.2,0-14.9-6.7-14.9-14.9
	s6.7-14.9,14.9-14.9h3V171.6z M225.4,129.8c-0.9,0-1.8,0.2-2.7,0.3c2.9-40.2,36.5-72,77.4-72s74.4,31.8,77.4,72
	c-0.9-0.1-1.8-0.3-2.7-0.3h-4.1C365,95.9,335.6,70,300.1,70s-64.9,25.9-70.6,59.7H225.4L225.4,129.8z M359.9,141.6
	c-43.1-1.5-71.7-19.1-71.7-35.7c0-3.3-2.7-6-6-6s-6,2.7-6,6c0,14.9-15.4,27.3-35.5,29.5c3.2-30,28.6-53.4,59.4-53.4
	C333,82,359.8,108.7,359.9,141.6z M240.4,171.6v-24.2c18.7-1.6,34.5-10.6,42.4-23.2c12.5,16.6,41.7,28.2,77.1,29.4v18
	c0,13.5-4.5,25.8-12.1,35.8h-47.7v11.9h35.7c-3.4,2.6-7.1,4.8-11.1,6.6c-15.7,7.1-33.6,7.1-49.3,0
	C254.8,216.6,240.4,195.8,240.4,171.6L240.4,171.6z M281.6,240.8c5.9,1.6,12.1,2.5,18.5,2.5s12.6-0.9,18.5-2.5l-18.5,36.9
	L281.6,240.8L281.6,240.8z M290.5,285.1h-10.5L256,237.3h10.5L290.5,285.1z M333.7,237.3h10.5l-23.9,47.8h-10.5L333.7,237.3z
	 M186.6,315v77.7h-17.9V315c0-41.6,32.9-75.6,74.1-77.5l23.8,47.6h-50.1C200,285.1,186.6,298.5,186.6,315L186.6,315z M401.7,392.7
	H198.5V315c0-9.9,8-17.9,17.9-17.9h167.3c9.9,0,17.9,8,17.9,17.9V392.7z M431.6,392.7h-17.9V315c0-16.5-13.4-29.9-29.9-29.9h-50.1
	l23.8-47.6c41.1,1.9,74.1,35.9,74.1,77.5V392.7L431.6,392.7z"/>
<rect x="377.8" y="338.9" class="st0" width="11.9" height="41.8"/>
<rect x="377.8" y="315" class="st0" width="11.9" height="11.9"/>
<rect x="431.6" y="99.9" class="st0" width="11.9" height="11.9"/>
<rect x="431.6" y="123.8" class="st0" width="11.9" height="11.9"/>
<rect x="431.6" y="147.7" class="st0" width="11.9" height="11.9"/>
<rect x="156.7" y="171.6" class="st0" width="11.9" height="11.9"/>
<rect x="156.7" y="195.5" class="st0" width="11.9" height="11.9"/>
<rect x="156.7" y="219.4" class="st0" width="11.9" height="11.9"/>
</svg>
